<svg xmlns="http://www.w3.org/2000/svg" width="64" height="64" xml:space="preserve"><path fill-rule="evenodd" clip-rule="evenodd" fill="#B4B9B5" d="M17.517 21.174c-.102-1.162-.479-1.534-1.54-1.858-1.679 1.643.135 3.365 1.54 1.858M1.762 36.614l.576 1.329c1.019.25.802.396 1.687.002l.218-1.246c-.72-.383-.997-.633-1.672-.872l-.809.787zM63.577 28.309c.11-1.311-1.389-3.016-2.199-1.635-.256.436-.357.474.238 1.22.754.945 1.458.597 1.961.415M23.771 33.713c1.124-.479.233-.245 1.047-.691-.341-3.871-4.614-.602-1.047.691M35.799 20.611c.54.414.724.694 1.378.894 1.033-.656.378.187 1.069-.954-.343-1.048-.781-1.418-1.764-1.826-.767.869-.708.485-.683 1.886M59.311 37.673c.624-.697.143-.303.689-.6-.021-.646.212.04-.108-.677-.904-2.02-3.895-1.395-2.016.534.677.694.803.611 1.435.743M61.564 48.681c.588-1.223-1.016-3.116-2.147-1.877-.55.603.032 2.766 2.147 1.877M52.192 33.409c.692-.623.396-.229.761-1.212-2.682-3.847-3.829 1.082-.761 1.212M7.871 25.23c2.876-.588.325-2.655-.633-3.162-.463 1.627-.95 2.221.633 3.162M1.7 24.449c.938.056 1.126-.138 1.756-.48.011-1.142.172-.783-.572-1.581-.073-.079-.507-.495-.608-.56-.418-.263-.229-.225-.692-.176-.898 1.134-.407 1.994.116 2.797M28.377 42.953l1.66-.211c.42-1.85-.357-2.796-2.158-2.161-.315 1.359-.224.835.415 2.182.018.037.06.125.083.19M3.282 49.152c.899 1.496 3.163 1.739 3.451-.155-.604-.793-1.22-.946-2.649-.851l-.802 1.006zM50.989 2.804c.113 2.396 1.241 2.431 2.918 1.848-.002-2.183-2.012-2.666-2.918-1.848M35.883 53.435c.059.03.143.028.165.108l.922.463c.68.113.907-.128 1.324-.369l.382-1.677-1.499-.749c-.918.465-1.4 1.045-1.294 2.224M45.27 27.041c-.082 1.976 1.757 3.163 3.268 1.881-.391-.98-1.805-2.758-3.268-1.881M59.8 60.455c.139-2.331-2.228-2.672-2.705-1.658-.345.73.279 1.655.688 1.924.908.601 1.397.035 2.017-.266M6.088 42.686c2.229 2.288 4.549-2.211.806-2.009-.745.958-.832.518-.806 2.009M22.212 5.202c.533-.462 1.057-.674 1.081-1.49.027-.9-.646-1.347-1.621-1.139-1.16.249-2.309 2.508.54 2.629M35.855 5.089c-.123-1.451-.75-2.084-2.496-2.03-.422.821-.674 1.662.277 2.383 1.045.793 1.621.036 2.219-.353M30.119 49.231c-.631-1.787-2.929-2.408-2.984-.612-.044 1.432 2.024 2.613 2.984.612M1.013 43.525c2.202.155 2.55-1.776 1.246-3.129-2.119.436-2.052 1.543-1.246 3.129M60.301 42.512c1.505.798 3.438.086 2.627-1.599-.604-1.256-2.975-.98-2.627 1.599M35.29 48.289c-.056 4.47 5.765.494 2.013-.363l-2.013.363zM44.034 42.366c.682-.725.148-.303.748-.616-.03-1.384-1.489-2.822-2.759-2.024-1.254.788.554 2.436 2.011 2.64M2.702 53.541c-.272 1.266-.19 1.206.144 2.258 1.806.427 2.594-.967 2.151-2.781-1.143-.309-1.38-.142-2.295.523M42.24 18.501c1.377-1.221 1.469-1.942.235-3.153-2.44.106-2.679 2.658-.235 3.153M32.697 38.944c.599.621.315.593 1.36.954 1.031-.509 1.292-.789 1.339-2.201-1.571-1.9-2.773-.839-2.699 1.247M11.59 4.431c1.786.085 1.856-1.801 1.491-3.028-1.025-.181-1.873-.15-2.24.787-.596 1.518.694 2.196.749 2.241M2.767 6.843c3.444-.071 3.346-2.693 2.688-5.049C1.448 1.51.764 4.269 2.767 6.843M40.293 46.596c1.113-.346.801-.188 1.348-1.104-.226-1.014-1.424-2.71-2.607-1.879-1.253.878.369 2.605 1.259 2.983M31.554 59.358c-.991 2.322 1.164 4.218 2.325 3.045.964-.971-1.011-3.183-2.325-3.045M10.731 42.424c-1.003 1.619.15 2.542.881 3.19 1.217-.028.881.141 1.562-.433.257-1.292-1.125-3.252-2.443-2.757M27.199 2.035c-.185 1.979 1.105 3.282 2.599 2.194 1.456-1.061-.657-2.553-1.601-2.855-.582.285-.445.321-.998.661M63.305 57.327c.392-1.667-.344-3.042-2.313-2.888-1.139 1.87-.185 3.683 2.313 2.888M.335 32.556c.481 1.428 1.496 1.618 3.105 1.143.687-.749.766-1.395.512-2.198-1.544-.345-2.913.285-3.617 1.055M41.571 12.787c1.135-1.21.212-2.059-.573-2.985-3.341-.33-2.102 3.491.573 2.985M8.055 55.155c.365.65.774 1.481 1.95 1.281 1.641-.279-.402.263.482-.182 2.501-1.254-.91-4.904-2.432-1.099M11.223 11.198c.043-1.498-1.051-2.777-2.624-2.353-1.204 2.204.816 4.208 2.624 2.353M15.248 4.608c.037.946.175 1.031.592 1.721 4.577 1.005 1.779-2.712 1.734-2.794-1.229.039-1.62.378-2.326 1.073M41.887 25.298c.159-1.018.146-1.694-.554-2.355-.533-.502-1.392-.991-2.049-.318-1.18 1.205.025 3.281 2.603 2.673M26.758 16.461c-.572-.423-1.327-.942-2.232-.419l-.633.542c-1.637 2.244 3.713 3.612 2.865-.123M51.369 38.604c.003.001 1.194.705 1.706.556 2.38-.691.181-2.688.108-2.758l-.405-.39-1.262-.154c-.456.906-.707 1.432-.147 2.746M28.779 13.957c-1.39 5.161 5.315 2.979 2.034.48-.643-.49-1.283-.739-2.034-.48M29.157 10.575c-.567-1.1-.867-1.352-2.338-1.372-3.629 3.304 1.347 4.859 2.338 1.372M20.029 59.124c-2.098 1.293-2.476 3.687.256 3.341 1.593-.201 2.981-2.676-.256-3.341M14.553 48.203c-.821-.587-1.132-1.271-2.44-.665-.488.226-1.358 1.27-1.083 2.095.191.572 1.072 1.342 2.265.903l.701-.473c.871-.829.608-1.094.557-1.86M43.814 61.046c.817-1.253.779-1.702-.291-2.898-1.706-.18-2.61.218-2.721 1.78-.133 1.866 1.99 1.359 3.012 1.118M13.664 33.135c-.978 0-.738 1.605-.62 2.266 1.498.828 3.785.735 4.419-1.133-.665-.497-2.686-2.174-3.799-1.133M62.116 16.898c1.473-1.395 1.302-2.984 0-4.511-4.082-.008-1.759 3.773 0 4.511M56.718 13.674c1.89-1.129.917-3.068.313-4.364-1.618-.068-2.698.092-2.433 1.979.135.974 1.428 2.169 2.12 2.385M50.84 20.161c.703-1.297.598-2.878.08-3.988-4.572-1.719-2.895 4.898-.08 3.988M48.389 62.839c2.42.491 3.808-1.871 3.568-3.484-1.232-.659-1.953-.913-3.024.371-.767.919-1.103 2.092-.544 3.113M24.276 42.758c-.672.434-1.843 1.237-1.917 2.48-.081 1.354 1.065 1.729 2.273 1.113 2.197-1.119 2.129-5.201-.356-3.593M42.429 48.452l.506.29c.467.189-.279.207.735.182.593-.015.946-.304 1.329-.585.995-.729 1.301-1.5 1.416-2.881l-.628-.422c-1.849-.933-3.692 1.566-3.358 3.416M16.288 11.351c-2.415 1.521-1.295 2.834-.548 3.504 2.042 1.832 3.753-.117 2.913-1.681-.476-.886-1.361-1.303-2.365-1.823M13.684 37.526c-.691.354-.479-.214-1.268.964-.109.164-.55 1.116-.589 1.48-.169 1.562.912 1.762 2.276 1.112 2.322-1.104 2.246-4.929-.419-3.556M23.186 23.395c-2.453 1.146.25 4.824 2.209 3.794 1.833-.964.236-2.937-.82-3.648-.837-.564-.652-.491-1.389-.146M20.908 49.173c-2.485 1.408-2.144 5.008.405 3.8.392-.186 1.674-1.525 1.818-2.242.308-1.533-1.092-2.199-2.223-1.558M36.553 34.614c.735-.405 1.927-1.04 1.45-2.163-.189-.447-1.542-1.937-2.174-2.069-2.106-.442-2.958 3.403.724 4.232M21.374 32.801c.357-1.892-.589-3.454-2.592-4.151-3.546 2.833.243 5.955 2.592 4.151M17.814 22.951c-.448.313-.821-.036-1.095 1.134-.182.778.02 1.349.411 1.927.049.072.899.977 1.021 1.049 1.808 1.083 3.383-.57 2.03-2.958-1.444-2.549-2.36-1.158-2.367-1.152M28.591 26.253c-1.411.554-1.872 1.513-1.118 3.127 1.217 2.605 5.374 1.826 3.159-1.731l-.235-.384c-.245-.375-.183-.38-.506-.687-.66-.625-.681-.568-1.3-.325M2.941 10.634c-2.419 1.157-.248 5.158 2.03 4.555 2.043-.541.836-3.163-.521-4.299-.719-.603-.525-.727-1.509-.256M11.61 20.341c-1.333.439-2.224 1.02-1.335 3.166.427 1.029 1.721 1.903 2.933 1.409 2.403-.981-.514-4.933-1.598-4.575M57.03 34.064c1.726.268 2.351.281 3.563-.877 2.308-2.204.502-3-.061-4.171-1.514-.063-2.314.878-2.956 1.787-.79 1.12-.901 2.03-.546 3.261M11.805 58.465c-.249 1.551-.27 2.455.716 3.575 2.177 2.476 5.808.009 2.993-2.993-1.069-1.14-2.326-1.003-3.709-.582M57.854 49.58c-4.193 1.601-3.57 7.822.974 4.152 2.192-1.77.512-4.72-.974-4.152M55.09 41.104c-3.359 1.28-.075 5.584 2.484 4.708 2.901-.991-.001-5.654-2.484-4.708M30.829 19.051c-1.532.524-1.974 1.483-1.144 3.075.471.903 1.449 2.197 3.322 1.684 3.203-.879.107-5.541-2.178-4.759M31.291 57.649c-1.09-2.897-4.731-4.439-6.169-1.484-1.082 2.226 4.231 3.781 6.169 1.484M19.716 8.617c-.428.32-1.021-.174-1.1 1.351-.049.95.37 1.399.917 2.043.037.043.095.117.134.159l1.24.876a2.436 2.436 0 0 0 2.021-.246c1.993-1.186-.01-3.933-1.253-4.478-1.595-.699-1.19-.281-1.959.295M7.755 61.537c.05-1.722.213-.802-1.317-2.379-3.109-3.207-6.978 1.233-3.404 2.663 1.919.767 3.266.378 4.721-.284M47.342 8.554c-3.056.817-1.017 5.764 2.201 4.957 3.236-.812.048-5.558-2.201-4.957M37.139 55.381c-2.919.626-5.876 3.622-.398 4.174 3.371.34 4.533-5.061.398-4.174M49.396 45.815c-1.65.752-.683 2.992-.068 4.102 2.36 4.258 5.776-.799 3.793-2.587-.393-.354-2.77-1.95-3.725-1.515M62.956 22.481c.439-4.225-5.229-3.576-6.198-.771-.69 2 .355 2.999 2.302 2.582 1.636-.35 2.817-1.332 3.896-1.811M52.579 23.789c-.774.418-.934.39-1.313 1.415-1.148 3.091 1.554 5.057 2.975 4.826 2.254-.366 1.796-8.106-1.662-6.241M9.662 34.001c.891-2.952.415-3.556-.481-6.094-3.4-1.048-4.632 3.3-3.049 5.024 1.482 1.614 2.32 1.44 3.53 1.07M60.765 1.687C56.421.82 53.487 9.271 58.9 7.302a86.518 86.518 0 0 0 1.021-.554l.625-.554c1.557-1.538 1.102-3.05.219-4.507M16.607 41.45c-2.996 1.834-1.121 6.884 1.753 6.312 2.409-.479 1.478-8.288-1.753-6.312M27.102 38.133c2.017.363 1.365.359 2.963-.422.002-1.733.437-7.096-2.75-5.778-1.343.556-2.982 3.026-.73 5.451l.258.287c.256.336.214.352.259.462M45.582 51.078l-.471.452c-3.109 3.176.438 6.431 2.22 5.934 2.497-.696 1.085-8.307-1.749-6.386" style="fill:#a0a0a0;fill-opacity:1"/><path fill-rule="evenodd" clip-rule="evenodd" fill="#B4B9B5" d="m7.852 13.05-.457.456c-.034.035-.111.106-.148.146-.485.525-.268.035-.617.864-1.199 2.831 1.108 5.291 2.979 4.876 2.664-.591 1.034-8.552-1.757-6.342M40.767 30.81c-.848 1.92-1.607 4.262.913 5.776.75.451 1.349.484 2.033.168 1.896-1.695.349-3.764.334-5.983-1.759-.703-1.519-.508-3.28.039M34.058 11.62c-1.881 3.781-.363 8.754 3.468 6.387 1.432-.884 1.724-2.526.629-4.078-.709-1.006-.692-.67-1.707-1.333-.837-.547-1.214-.978-2.39-.976M39.422 2.009c-1.913 1.801 1.426 8.541 4.409 5.547.257-.258.95-1.389 1.025-2.015.153-1.271-.328-1.69-1.007-2.238-1.06-.858-3.085-2.558-4.427-1.294" style="fill:#a0a0a0;fill-opacity:1"/></svg>