<svg xmlns="http://www.w3.org/2000/svg" width="560" height="521"><g class="layer" transform="translate(-27.5 -23.5)"><path style="fill:none" d="M-1-1h802v602H-1z"/></g><g class="layer" style="fill:#fff;fill-opacity:1;stroke:#fff;stroke-width:25;stroke-miterlimit:4;stroke-dasharray:none;stroke-opacity:1" transform="translate(-27.5 -23.5)"><path d="M2890 4530v-760h-390v190h-570v-950H790v190H400V330h5350v2870h-380v-190H4220v950h-570v-190h-570v760h760v570h-760v190h-190zm-5-1905v-570h-380l-3 560c-1 308 0 566 3 573 3 10 48 12 192 10l188-3zm765 0v-575h-380v1150h380zm-2480-385v-380H790v760h380zm760 0v-380h-380v760h380zm2678 3-3-378h-380l-3 378-2 377h390zm762-3v-380h-380v760h380zM1170 1100V720H790v760h380zm760 0V720h-380v760h380zm958-2 2-378h-390v373c0 206 3 377 7 381 4 3 90 5 192 4l186-3zm762 2V720h-380v760h380zm958-2 2-378h-390v373c0 206 3 377 7 381 4 3 90 5 192 4l186-3zm762 2V720h-380v760h380z" style="fill:#fff;fill-opacity:1;stroke:#fff;stroke-width:250;stroke-miterlimit:4;stroke-dasharray:none;stroke-opacity:1" transform="matrix(.1 0 0 -.1 0 565)"/></g><g class="layer" style="stroke:none" transform="translate(-27.5 -23.5)"><g style="fill:#575757;stroke:none"><path style="stroke:none;stroke-width:100" d="M2890 4530v-760h-390v190h-570v-950H790v190H400V330h5350v2870h-380v-190H4220v950h-570v-190h-570v760h760v570h-760v190h-190zm-5-1905v-570h-380l-3 560c-1 308 0 566 3 573 3 10 48 12 192 10l188-3zm765 0v-575h-380v1150h380zm-2480-385v-380H790v760h380zm760 0v-380h-380v760h380zm2678 3-3-378h-380l-3 378-2 377h390zm762-3v-380h-380v760h380zM1170 1100V720H790v760h380zm760 0V720h-380v760h380zm958-2 2-378h-390v373c0 206 3 377 7 381 4 3 90 5 192 4l186-3zm762 2V720h-380v760h380zm958-2 2-378h-390v373c0 206 3 377 7 381 4 3 90 5 192 4l186-3zm762 2V720h-380v760h380z" transform="matrix(.1 0 0 -.1 0 565)"/></g></g><path style="opacity:1;fill:#fff;fill-opacity:1;stroke:none;stroke-width:0;stroke-linecap:square;stroke-miterlimit:4;stroke-dasharray:none;stroke-opacity:1" d="M62.661 431.612v-27.531H79.419v55.063H62.661zM62.661 317.894V291.56H79.419v52.67H62.661zM139.271 317.894V291.56h14.365v52.67H139.27zM139.271 431.612v-27.531h14.365v55.063H139.27zM223.064 431.612v-37.108h35.208l1.548 18.317c.852 10.074 1.549 26.773 1.549 37.108v18.791h-38.305Zm26.334 0v-27.531h-6.903c-8.689 0-9.78 3.653-9.822 32.918l-.033 22.145H249.398z"/><path style="opacity:1;fill:#fff;fill-opacity:1;stroke:none;stroke-width:0;stroke-linecap:square;stroke-miterlimit:4;stroke-dasharray:none;stroke-opacity:1" d="M234.564 434.605c.69-18.9 1.777-25.227 4.731-27.532 8.933-6.969 10.103-4.127 10.103 24.54v27.531h-15.73zM235.034 278.233V231.39l6.584.757 6.583.758.65 46.085.65 46.086H235.035zM311.644 278.392v-46.684h14.364v93.368h-14.364zM311.644 431.612v-27.531h14.364v55.063h-14.364zM405.013 431.612v-27.531h16.759v55.063h-16.76zM405.013 317.894V291.56h16.759v52.67h-16.76zM481.623 317.894V291.56H498.38v52.67h-16.759zM481.623 431.612v-27.531H498.38v55.063h-16.759z"/></svg>