<svg xmlns="http://www.w3.org/2000/svg" width="1025.388" height="1119"><g class="layer" transform="translate(5.51 1)"><path style="fill:none" d="M-1-1h802v602H-1z"/></g><g class="layer" style="fill:#fff;fill-opacity:1;stroke:#fff;stroke-width:60;stroke-miterlimit:4;stroke-dasharray:none;stroke-opacity:1" transform="translate(5.51 1)"><path d="M7965 10643c-11-3-1367-340-3013-749-2258-561-3006-750-3043-771-60-32-109-84-146-155-26-49-28-62-28-168 0-132 12-166 91-250 91-97 213-134 351-106 43 9 620 151 1283 316s1213 300 1223 300c16 0 17-57 17-1050V6960l-1627-3c-1503-2-1633-4-1691-20-156-42-314-154-402-282-57-85-629-1232-664-1333-75-216-71-134-71-1502V2595l23-64c57-157 183-285 337-344l60-22 1272-3 1273-2V1050H1730V310h2970v740h-740v1110h2220V1050h-740V310h2970v740H6930v1110h1253c1361 0 1295-2 1416 56 79 38 199 160 239 244 65 132 63 88 59 1404-3 1173-3 1192-24 1284-45 193-53 212-499 1088-135 263-220 420-252 459-90 112-224 200-367 242-56 17-171 18-1687 21l-1628 2v2295l1343 334c738 183 1362 340 1387 349 104 34 185 119 220 231 48 153 0 301-132 407-71 56-208 88-293 67zm863-4976c163-321 290-584 303-627 18-58 23-100 23-185l1-110-4082-3-4083-2v113c0 81 5 132 20 182 12 44 124 278 300 628l281 557h6957zM3218 3448l-3-553-1112-3-1113-2v1110h2230zm2962-3v-555H3960v1110h2220zm2978 3-3-553-1112-3-1113-2v1110h2230z" style="fill:#fff;fill-opacity:1;stroke:#fff;stroke-width:600;stroke-miterlimit:4;stroke-dasharray:none;stroke-opacity:1" transform="matrix(.1 0 0 -.1 0 1119)"/></g><g transform="translate(5.51 1)" class="layer" style="opacity:.97999998"><g style="fill:#575757"><path d="M7965 10643c-11-3-1367-340-3013-749-2258-561-3006-750-3043-771-60-32-109-84-146-155-26-49-28-62-28-168 0-132 12-166 91-250 91-97 213-134 351-106 43 9 620 151 1283 316s1213 300 1223 300c16 0 17-57 17-1050V6960l-1627-3c-1503-2-1633-4-1691-20-156-42-314-154-402-282-57-85-629-1232-664-1333-75-216-71-134-71-1502V2595l23-64c57-157 183-285 337-344l60-22 1272-3 1273-2V1050H1730V310h2970v740h-740v1110h2220V1050h-740V310h2970v740H6930v1110h1253c1361 0 1295-2 1416 56 79 38 199 160 239 244 65 132 63 88 59 1404-3 1173-3 1192-24 1284-45 193-53 212-499 1088-135 263-220 420-252 459-90 112-224 200-367 242-56 17-171 18-1687 21l-1628 2v2295l1343 334c738 183 1362 340 1387 349 104 34 185 119 220 231 48 153 0 301-132 407-71 56-208 88-293 67zm863-4976c163-321 290-584 303-627 18-58 23-100 23-185l1-110-4082-3-4083-2v113c0 81 5 132 20 182 12 44 124 278 300 628l281 557h6957zM3218 3448l-3-553-1112-3-1113-2v1110h2230zm2962-3v-555H3960v1110h2220zm2978 3-3-553-1112-3-1113-2v1110h2230z" style="stroke:#fff;stroke-width:50" transform="matrix(.1 0 0 -.1 0 1119)"/></g></g><path style="opacity:1;fill:#fff;fill-opacity:1;stroke:none;stroke-width:0;stroke-linecap:square;stroke-miterlimit:4;stroke-dasharray:none;stroke-opacity:1" d="m163.528 571.707 19.988-40.303H840.37l19.02 37.827c10.46 20.805 19.018 38.941 19.018 40.303 0 1.362-165.345 2.476-367.434 2.476H143.54ZM138.73 775.593v-21.337h156.469v42.674H138.73zM432.704 775.593v-21.337h156.47v42.674h-156.47ZM731.42 775.593v-21.337h156.47v42.674H731.42Z"/><path style="opacity:1;fill:#fff;fill-opacity:1;stroke:none;stroke-width:0;stroke-linecap:square;stroke-miterlimit:4;stroke-dasharray:none;stroke-opacity:1" d="M148.212 1050.601V981.85H295.2v-47.415H176.426c-126.707 0-133.196-1.027-154.495-24.443-25.819-28.384-26.313-32.02-24.634-181.111l1.557-138.207 37.052-75.864C97.631 388.426 86.222 393.9 287.898 393.9h154.289v-68.752c0-37.814-.976-68.752-2.168-68.752-1.193 0-49.484 11.735-107.313 26.078-57.83 14.343-111.474 26.079-119.21 26.079-20.675 0-46.184-13.782-56.343-30.44-17.871-29.308-7.558-83.096 18.62-97.106 15.99-8.557 616.448-156.947 635.01-156.928 48.365.048 80.31 50.532 61.086 96.54-11.781 28.196-23.894 33.257-161.717 67.565L579.691 220.66V393.54l160.812 1.365 160.812 1.365 20.551 14.44c17.652 12.402 26.239 25.449 60.855 92.46l40.303 78.02 1.438 145.738c1.61 163.231.872 167.762-31.36 192.363l-16.733 12.771-122.475 1.41-122.474 1.41v46.966h146.987v137.504H518.051V981.85H589.174v-47.415h-156.47v47.415h75.864v137.504H148.212Zm327.165 0v-35.561h-75.864V901.243h222.852v113.797H551.242V1086.163h293.974V1015.04H698.23V901.243h264.796l14.59-14.59c17.086-17.086 16.862-14.446 15.254-179.812l-1.037-106.685-37.642-76.598c-50.608-102.983-38.377-96.467-181.097-96.467-61.219 0-137.246-1.395-168.95-3.1l-57.643-3.1V195.122l17.781-4.69c9.78-2.579 73.246-18.543 141.038-35.477 129.709-32.4 139.897-36.917 139.897-62.027 0-17.769-17.513-35.695-34.72-35.539-8.286.075-150.476 34.068-315.978 75.54-219.972 55.12-302.554 77.646-307.014 83.746-15.585 21.313-.569 58.688 23.579 58.688 5.892 0 66.889-13.87 135.548-30.82 68.658-16.951 125.714-30.82 126.79-30.82 1.076 0 1.956 46.625 1.956 103.61v103.612l-39.117 3.045c-21.515 1.675-96.945 3.058-167.623 3.073-161.376.036-146.256-7.311-198.66 96.53l-37.932 75.163-1.473 128.23c-1.577 137.295-.209 147.686 21.72 164.936 11.14 8.762 19.79 9.322 143.975 9.322H328.39v113.797H181.403V1086.163h293.974z"/></svg>