<svg xmlns="http://www.w3.org/2000/svg" width="60.465" height="60.162" viewBox="0 0 15.998 15.918"><path style="opacity:1;fill:#fff;fill-opacity:1;stroke:#fff;stroke-width:3.17499995;stroke-linecap:square;stroke-miterlimit:4;stroke-dasharray:none;stroke-opacity:1" d="m3.825 16.133-.208-.222-.024-4.21c-.02-3.42-.002-4.262.094-4.492.106-.252.455-.47 3.096-1.94 1.825-1.016 3.068-1.657 3.212-1.657.304 0 6.111 3.22 6.285 3.485.11.166.124.824.104 4.562l-.024 4.367-.204.164c-.195.159-.423.165-6.162.165h-5.96Zm3.87-2.218c-.03-.938-.043-.995-.325-1.443-.581-.921-.565-.853-.594-2.603-.02-1.156.002-1.655.075-1.743.128-.154.545-.16.67-.01.056.068.104.62.119 1.356.02 1.102.04 1.244.174 1.27.138.027.15-.077.15-1.22 0-1.351.053-1.519.474-1.519.422 0 .474.168.474 1.52 0 1.142.013 1.246.15 1.22.134-.027.154-.169.175-1.271.015-.736.063-1.288.118-1.355.118-.142.521-.148.66-.01.132.132.143 3.05.012 3.4-.05.132-.254.512-.452.842-.36.597-.362.606-.392 1.571l-.031.971h1.912v-.484c0-.372-.064-.616-.278-1.05-.265-.539-.278-.612-.277-1.56.002-1.387.366-2.492 1.13-3.428.31-.38.651-.483.872-.263.077.077.103.961.103 3.445v3.34h2.239V7.96l-2.355-1.309c-1.294-.72-2.392-1.32-2.44-1.334-.046-.014-1.175.575-2.507 1.309L5.13 7.96l-.003 3.466-.002 3.465h2.601z" transform="translate(-1.998 -2.024)"/><path style="opacity:1;fill:#fff;fill-opacity:1;stroke:#fff;stroke-width:.49197674;stroke-linecap:square;stroke-miterlimit:4;stroke-dasharray:none;stroke-opacity:1" d="M6.61 29.17V16.83l5.289-2.91a898.35 898.35 0 0 1 8.766-4.764l3.479-1.852 8.643 4.772 8.644 4.771V41.51h-6.509V33.59c0-4.357-.097-9.946-.215-12.42-.185-3.848-.308-4.589-.85-5.131-1.024-1.024-2.729-.57-4.259 1.132-1.349 1.501-3.002 4.505-3.627 6.59-.363 1.209-.4 1.044-.622-2.75-.13-2.22-.374-4.294-.542-4.609-.455-.85-2.398-1.116-3.391-.466-.447.293-.812.669-.812.836 0 .166-.36-.057-.8-.496-.998-.999-2.526-1.053-3.457-.122-.611.612-.714.627-1.059.156-.634-.868-2.541-1-3.478-.24-.805.651-.806.662-.806 6.62 0 3.282.112 6.492.249 7.134.137.643.854 2.172 1.594 3.399 1.264 2.095 1.355 2.415 1.504 5.26l.158 3.028H6.611Z" transform="matrix(.26458 0 0 .26458 1.652 1.626)"/><path style="opacity:1;fill:#fff;fill-opacity:1;stroke:#fff;stroke-width:.49197674;stroke-linecap:square;stroke-miterlimit:4;stroke-dasharray:none;stroke-opacity:1" d="M21.907 38.663c.002-1.75.17-3.161.437-3.661l1.625-3.038 1.19-2.223v2.596c0 2.158.165 2.984.977 4.89.537 1.263.976 2.742.976 3.289v.994H21.905z" transform="matrix(.26458 0 0 .26458 1.652 1.626)"/><path style="opacity:1;fill:#ef883a;fill-opacity:1;stroke:#fff;stroke-width:0;stroke-linecap:square;stroke-miterlimit:4;stroke-dasharray:none;stroke-opacity:1" d="m3.825 16.133-.208-.222-.024-4.21c-.02-3.42-.002-4.262.094-4.492.106-.252.455-.47 3.096-1.94 1.825-1.016 3.068-1.657 3.212-1.657.304 0 6.111 3.22 6.285 3.485.11.166.124.824.104 4.562l-.024 4.367-.204.164c-.195.159-.424.165-6.162.165h-5.96Zm3.87-2.218c-.03-.938-.043-.995-.325-1.442-.581-.922-.565-.854-.594-2.603-.02-1.157.002-1.656.075-1.744.128-.154.545-.16.67-.01.056.068.104.62.119 1.356.02 1.102.04 1.244.174 1.27.138.027.15-.077.15-1.22 0-1.351.053-1.519.474-1.519.422 0 .474.168.474 1.52 0 1.142.013 1.246.15 1.22.134-.027.154-.169.175-1.271.015-.736.063-1.288.118-1.355.118-.142.521-.148.66-.01.132.132.143 3.05.012 3.4-.05.133-.254.512-.452.842-.36.597-.362.606-.392 1.571l-.031.971h1.912v-.484c0-.372-.064-.616-.278-1.05-.265-.539-.278-.612-.277-1.56.002-1.386.366-2.492 1.13-3.428.31-.38.651-.483.872-.262.077.076.103.96.103 3.444v3.34h2.239V7.96l-2.355-1.308c-1.294-.72-2.392-1.32-2.44-1.335-.046-.014-1.175.575-2.507 1.309L5.13 7.96l-.003 3.466-.002 3.465h2.601z" transform="translate(-1.998 -2.024)"/></svg>