<svg xmlns="http://www.w3.org/2000/svg" width="578.076" height="586"><g class="layer" transform="translate(-21.924 5)"><path style="fill:none" d="M-1-1h802v602H-1z"/></g><g style="fill:#fff;fill-opacity:1;stroke:#fff;stroke-width:300;stroke-miterlimit:4;stroke-dasharray:none;stroke-opacity:1"><path style="fill:#fff;fill-opacity:1;stroke:#fff;stroke-width:300;stroke-miterlimit:4;stroke-dasharray:none;stroke-opacity:1" d="M2756 5724c-20-20-26-37-26-68 0-22 65-430 145-906 139-836 145-866 170-887 36-32 94-31 127 1 23 23 34 83 171 908 81 486 148 891 147 901 0 10-13 32-29 48l-29 29h-649zM1723 5400c-26-10-456-321-495-358-27-25-36-68-23-105 10-24 1274-1261 1303-1274 33-15 70-8 100 19 48 46 50 41-378 897-252 505-408 805-422 815-25 18-51 19-85 6zM4393 5378c-32-35-813-1604-813-1634 0-14 5-34 11-46 14-26 67-48 102-41 21 4 202 177 660 627 348 341 641 633 651 649 18 27 18 33 5 68-12 34-44 60-264 219-225 162-254 180-291 180-29 0-46-6-61-22zM5555 4163c-44-12-1582-817-1602-840-32-33-31-86 2-118 18-19 35-25 69-25 51 0 1701 244 1758 260 38 11 68 49 68 86 0 35-191 601-207 617-21 18-60 27-88 20zM573 4138c-28-31-203-561-203-614 0-83-55-70 911-214 475-72 885-130 910-130 35 0 51 5 67 23 25 27 30 91 8 119-7 9-369 202-804 428-850 441-843 438-889 388zM3984 2760c-55-22-73-109-31-148 12-11 375-204 807-428 831-431 833-432 880-389 19 17 210 580 210 619 0 31-29 73-57 84-15 6-415 67-888 137s-869 128-880 130-30 0-41-5zM1280 2629c-671-101-860-133-880-148-45-33-39-74 49-348 45-136 88-267 97-291 19-51 60-77 105-67 43 10 1601 821 1617 842 21 29 15 91-13 118-19 20-34 25-72 24-26-1-433-59-903-130zM2505 2275c-16-8-316-295-665-638-614-602-635-624-638-663-2-28 3-48 15-62 31-38 495-370 526-376 70-14 56-37 487 824 295 589 400 809 400 834 0 67-66 110-125 81zM3633 2276c-35-16-53-43-53-80 0-14 182-390 404-835 366-731 407-809 435-821 23-9 38-9 61-1 17 5 141 90 275 186 202 146 246 182 255 209 7 21 7 42 1 57-5 13-249 260-542 549-722 711-750 738-779 744-14 3-39-1-57-8zM3053 2085c-13-9-27-32-32-53-17-66-291-1718-291-1756 0-26 7-44 25-61l24-25h653l29 29c16 16 29 39 29 50 0 43-291 1767-301 1787-22 42-95 57-136 29z" transform="matrix(.1 0 0 -.1 -21.924 590)"/></g><g style="fill:#000;stroke:none"><path style="fill:#e2000f;stroke:none;stroke-width:150" d="M2756 5724c-20-20-26-37-26-68 0-22 65-430 145-906 139-836 145-866 170-887 36-32 94-31 127 1 23 23 34 83 171 908 81 486 148 891 147 901 0 10-13 32-29 48l-29 29h-649zM1723 5400c-26-10-456-321-495-358-27-25-36-68-23-105 10-24 1274-1261 1303-1274 33-15 70-8 100 19 48 46 50 41-378 897-252 505-408 805-422 815-25 18-51 19-85 6zM4393 5378c-32-35-813-1604-813-1634 0-14 5-34 11-46 14-26 67-48 102-41 21 4 202 177 660 627 348 341 641 633 651 649 18 27 18 33 5 68-12 34-44 60-264 219-225 162-254 180-291 180-29 0-46-6-61-22zM5555 4163c-44-12-1582-817-1602-840-32-33-31-86 2-118 18-19 35-25 69-25 51 0 1701 244 1758 260 38 11 68 49 68 86 0 35-191 601-207 617-21 18-60 27-88 20zM573 4138c-28-31-203-561-203-614 0-83-55-70 911-214 475-72 885-130 910-130 35 0 51 5 67 23 25 27 30 91 8 119-7 9-369 202-804 428-850 441-843 438-889 388zM3984 2760c-55-22-73-109-31-148 12-11 375-204 807-428 831-431 833-432 880-389 19 17 210 580 210 619 0 31-29 73-57 84-15 6-415 67-888 137s-869 128-880 130-30 0-41-5zM1280 2629c-671-101-860-133-880-148-45-33-39-74 49-348 45-136 88-267 97-291 19-51 60-77 105-67 43 10 1601 821 1617 842 21 29 15 91-13 118-19 20-34 25-72 24-26-1-433-59-903-130zM2505 2275c-16-8-316-295-665-638-614-602-635-624-638-663-2-28 3-48 15-62 31-38 495-370 526-376 70-14 56-37 487 824 295 589 400 809 400 834 0 67-66 110-125 81zM3633 2276c-35-16-53-43-53-80 0-14 182-390 404-835 366-731 407-809 435-821 23-9 38-9 61-1 17 5 141 90 275 186 202 146 246 182 255 209 7 21 7 42 1 57-5 13-249 260-542 549-722 711-750 738-779 744-14 3-39-1-57-8zM3053 2085c-13-9-27-32-32-53-17-66-291-1718-291-1756 0-26 7-44 25-61l24-25h653l29 29c16 16 29 39 29 50 0 43-291 1767-301 1787-22 42-95 57-136 29z" transform="matrix(.1 0 0 -.1 -21.924 590)"/></g></svg>