<svg xmlns="http://www.w3.org/2000/svg" xmlns:xlink="http://www.w3.org/1999/xlink" width="746" height="777"><image width="746" height="777" preserveAspectRatio="none"  style="fill:red;stroke:#000;stroke-opacity:1;stroke-width:2;stroke-miterlimit:4;stroke-dasharray:none"/><path style="fill:#000;fill-opacity:1;stroke:#000;stroke-opacity:1;stroke-width:2;stroke-miterlimit:4;stroke-dasharray:none" d="M398 738.884c-15.133-.667-32.968-2.667-44.006-4.936-43.967-9.035-79.92-22.253-114.994-42.277-80.048-45.7-137.533-117.651-168.41-210.79-13.72-41.386-20.954-79.742-23.666-125.483-.689-11.606-.966-21.847-.617-22.757.558-1.452 1.892-1.574 10.914-.997 5.654.362 10.61 1.153 11.014 1.757.404.605.751 6.049.772 12.099.063 18.27 2.125 40.553 5.504 59.5.736 4.125 1.635 9.525 1.998 12 2.359 16.087 11.945 50.154 20.682 73.5 31.748 84.836 90.263 151.09 167.905 190.113 68.533 34.445 137.01 44.924 211.404 32.352 30.35-5.129 69.31-18.336 101.5-34.407 33.2-16.576 69.149-40.798 91.294-61.514l6.517-6.097 6.845 7.597c3.764 4.178 6.98 8.19 7.146 8.916.979 4.275-44.661 38.558-73.302 55.062-9.158 5.278-34.075 18.061-42.5 21.805-59.343 26.368-114.796 37.256-176 34.557zm-30.043-79.66c-4.415-6.535-24.009-35.676-81.507-121.224a103197.52 103197.52 0 0 0-40.985-60.938c-7.2-10.69-13.688-19.636-14.418-19.88-.777-.259-1.042.017-.64.667.377.61 1.303 4.156 2.057 7.88 2.989 14.746 4.8 23.255 13.041 61.271 4.71 21.725 8.824 40.71 9.142 42.19.55 2.553.283 2.772-5.284 4.345-3.225.911-7.663 2.251-9.863 2.978-2.2.727-4.362.974-4.805.55-.745-.715-3.557-14.149-19.692-94.063a42108.704 42108.704 0 0 0-10.517-51.911l-4.562-22.412L186.1 387.59a179856.06 179856.06 0 0 1-25.618-39.089 120930.339 120930.339 0 0 0-38.31-58.458c-4.805-7.327-8.172-13.505-8.174-15-.005-4.352 3.205-28.468 3.982-29.915.506-.941 2.778 1.73 7.232 8.5 52.341 79.568 62.967 95.529 63.347 95.148.193-.193-10.923-56.684-24.702-125.536L138.804 98.053l8.164-11.508C154.388 76.085 157 72.927 157 74.413c0 .292 3.885 19.78 8.633 43.309 8.706 43.137 10.237 50.837 12.285 61.778.617 3.3 1.547 7.8 2.066 10 .52 2.2 1.692 8.05 2.608 13 .915 4.95 1.974 9.586 2.355 10.302.506.954 2.276.14 6.622-3.043 21.806-15.979 57.862-31.644 94.678-41.135 16.963-4.374 39.236-8.952 49.253-10.125 2.75-.322 7.7-1.016 11-1.543 7.489-1.195 29.748-3.042 30.277-2.512.525.525-14.71 46.75-15.874 48.164-.502.61-5.973 1.425-12.158 1.813-10.351.649-15.672 1.235-32.245 3.553-21.632 3.026-50.556 9.765-71 16.543-14.597 4.839-32.632 12.46-31.98 13.514.286.464 3.324 2.181 6.75 3.817 3.427 1.635 15.23 7.338 26.23 12.674 11 5.335 26.465 12.808 34.367 16.606l14.368 6.907 6.632-5.4c13.56-11.041 21.63-14.635 32.86-14.635 7.792 0 10.31 1.027 23.959 9.776 12.322 7.898 38.393 22.479 39.038 21.833.237-.236-.256-5.982-1.094-12.77-4.173-33.795-4.516-55.492-1.315-83.367 2.683-23.36 4.733-30.199 11.204-37.361 4.912-5.437 11.15-8.146 28.981-12.584 42.045-10.466 71.946-24.67 107.547-51.088C554.37 84.037 576.362 65.446 582 59.511c1.925-2.027 4.74-4.578 6.255-5.67l2.755-1.984 1.873 4.321A633.298 633.298 0 0 0 597.278 66c3.68 8.027 29.772 67.01 30.716 69.437.442 1.135 2.365 5.438 4.274 9.563 1.91 4.125 6.515 14.475 10.236 23 3.721 8.525 7.996 18.2 9.501 21.5 1.505 3.3 4.993 11.175 7.752 17.5 4.948 11.345 8.436 19.194 12.442 28 1.126 2.475 4.403 9.9 7.283 16.5 2.88 6.6 6.263 14.25 7.518 17s4.643 10.4 7.529 17c4.76 10.887 8.156 18.543 12 27.053 6.178 13.681 7.471 16.825 7.471 18.166 0 1.418-8.65 18.302-11.637 22.716-1.211 1.789-1.491 1.525-3.723-3.5-1.328-2.99-3.753-8.36-5.39-11.935a1002.47 1002.47 0 0 1-6.246-14 956.322 956.322 0 0 0-6.723-15c-1.9-4.125-4.5-9.975-5.778-13-1.277-3.025-4.203-9.55-6.503-14.5-2.3-4.95-5.226-11.475-6.503-14.5-2.106-4.99-4.916-11.286-10.713-24-1.129-2.475-3.51-7.875-5.294-12a752.18 752.18 0 0 0-6.482-14.5c-3.174-6.855-4.385-9.565-16.942-37.922-3.39-7.658-7.32-16.433-8.732-19.5a1049.307 1049.307 0 0 1-6.078-13.578c-1.931-4.4-5.172-11.6-7.202-16-2.03-4.4-4.756-10.588-6.057-13.75-1.3-3.163-2.767-5.75-3.26-5.75-.49 0-4.345 3.676-8.565 8.17-9.093 9.683-29.94 27.34-42.043 35.609-25.845 17.657-54.303 31.269-81.129 38.803-5.225 1.468-9.923 3.058-10.44 3.533-1.147 1.055.809 31.954 3.008 47.528 4.71 33.343 9.866 57.695 16.804 79.357 4.556 14.227 6.063 25.089 4.598 33.163-1.947 10.741-5.489 15.562-14.97 20.38-4.786 2.43-18.527 2.472-26 .077-7.013-2.248-6.891-2.19-23.5-10.96-16.426-8.672-70.221-35.99-72.72-36.928-1.172-.44-4.207 1.186-9.5 5.091-35.983 26.54-71.818 47.093-105.095 60.276-2.59 1.026-2.335 3.332.872 7.882.977 1.385 7.934 11.969 15.46 23.519 18.64 28.605 19.886 30.445 20.648 30.474.365.014 2.202-2.111 4.08-4.724 3.832-5.328 29.777-41.193 39.246-54.25l15.396-21.228c5.078-7 9.543-12.903 9.923-13.118.38-.215 5.64.197 11.69.915 6.05.717 16.815 1.996 23.923 2.84 7.107.845 13.287 1.901 13.733 2.347 1.384 1.384-33.977 69.865-51.505 99.744-9.448 16.105-20.548 33.175-24.498 37.674l-3.226 3.673 16.212 24.327C357.907 601.348 392.338 653.657 392.67 655c.257 1.039-2.54 2.96-9.102 6.25-5.21 2.612-9.833 4.738-10.271 4.723-.438-.014-2.841-3.052-5.34-6.75zM214.325 327.851c44.168-25.536 56.572-32.876 57.158-33.825.293-.473-17.922-10.137-40.476-21.475C208.453 261.214 190 252.437 190 253.048c0 .611 2.944 15.588 6.543 33.282 3.598 17.693 6.994 34.645 7.545 37.67 1.19 6.521 1.644 8 2.456 8 .333 0 3.835-1.867 7.781-4.148zm164.387-191.945c-21.337-5.023-35.467-28.14-31.77-51.973 2.246-14.473 11.493-27.564 23.707-33.56 5.26-2.583 6.862-2.874 15.851-2.874 8.965 0 10.6.294 15.797 2.845 14.05 6.895 24.632 24.722 24.688 41.591.02 5.76-2.637 16.367-5.526 22.064-8.23 16.234-26.681 25.69-42.747 21.907z"/></svg>