<?xml version="1.0" encoding="UTF-8" standalone="no"?>
<!-- Created with Inkscape (http://www.inkscape.org/) -->

<svg
   xmlns:dc="http://purl.org/dc/elements/1.1/"
   xmlns:cc="http://creativecommons.org/ns#"
   xmlns:rdf="http://www.w3.org/1999/02/22-rdf-syntax-ns#"
   xmlns:svg="http://www.w3.org/2000/svg"
   xmlns="http://www.w3.org/2000/svg"
   xmlns:xlink="http://www.w3.org/1999/xlink"
   xmlns:sodipodi="http://sodipodi.sourceforge.net/DTD/sodipodi-0.dtd"
   xmlns:inkscape="http://www.inkscape.org/namespaces/inkscape"
   version="1.1"
   id="svg2"
   width="500"
   height="500"
   viewBox="0 0 500 500"
   sodipodi:docname="w_hundeschlitten_violett.svg"
   inkscape:version="0.92.4 (5da689c313, 2019-01-14)">
  <metadata
     id="metadata8">
    <rdf:RDF>
      <cc:Work
         rdf:about="">
        <dc:format>image/svg+xml</dc:format>
        <dc:type
           rdf:resource="http://purl.org/dc/dcmitype/StillImage" />
        <dc:title />
      </cc:Work>
    </rdf:RDF>
  </metadata>
  <defs
     id="defs6" />
  <sodipodi:namedview
     pagecolor="#ffffff"
     bordercolor="#666666"
     borderopacity="1"
     objecttolerance="10"
     gridtolerance="10"
     guidetolerance="10"
     inkscape:pageopacity="0"
     inkscape:pageshadow="2"
     inkscape:window-width="2560"
     inkscape:window-height="1360"
     id="namedview4"
     showgrid="false"
     inkscape:showpageshadow="false"
     inkscape:zoom="1"
     inkscape:cx="-447.5"
     inkscape:cy="250"
     inkscape:window-x="-11"
     inkscape:window-y="-11"
     inkscape:window-maximized="1"
     inkscape:current-layer="svg2" />
  <image
     width="500"
     height="500"
     preserveAspectRatio="none"
     id="image10"
     x="-500"
     y="3.0615159e-14"
     style="fill:#800080"
     transform="rotate(-90)" />
  <path
     style="fill:#990099;fill-opacity:1"
     d="m 306.25,162.98753 c -1.5125,-0.49963 -21.2,-5.27046 -43.75,-10.60183 -22.55,-5.33137 -41.11072,-9.77239 -41.24604,-9.86893 -0.13533,-0.0965 -2.35458,-17.3149 -4.93168,-38.26302 L 211.63665,66.16626 196.30693,51.55612 c -8.43135,-8.03558 -14.7621,-14.78881 -14.06833,-15.00717 8.87751,-2.79426 7.85303,-1.62635 13.72804,-15.64991 3.00665,-7.17683 5.78383,-13.24482 6.17151,-13.48442 0.38768,-0.2396 5.1277,5.08159 10.53336,11.82487 L 222.5,31.5 236.04315,33 249.5863,34.5 278.54315,54.40928 C 294.46942,65.35939 307.725,74.53833 308,74.80693 c 0.73965,0.72244 -1.39428,0.0861 -25.80639,-7.69607 -12.26851,-3.91097 -22.61851,-7.11105 -23,-7.11128 -0.38148,-2.4e-4 0.16984,16.10707 1.22517,35.79401 l 1.91877,35.79443 23.30713,15.45599 c 12.81892,8.5008 23.31797,15.77008 23.33122,16.15397 0.0133,0.38389 -1.2134,0.28919 -2.7259,-0.21045 z M 290.53404,486 H 285 v -28.51466 -28.51467 l -30.25,0.26467 -30.25,0.26466 -1.6761,18 c -0.92186,9.9 -1.70936,18.3375 -1.75,18.75 -0.0406,0.4125 -2.0989,0.75 -4.5739,0.75 -4.02205,0 -4.5,-0.24299 -4.5,-2.28783 0,-1.25831 4.27274,-41.87081 9.49497,-90.25 5.22223,-48.37919 9.49723,-88.29967 9.5,-88.71217 0.003,-0.4125 2.24378,-0.75 4.98003,-0.75 4.87913,0 4.96558,0.053 4.48607,2.75 -0.86071,4.84117 -4.44764,36.64813 -4.45447,39.5 L 236,330 h 18.35331 c 10.09432,0 21.11932,-0.28911 24.5,-0.64246 L 285,328.71509 v -25.72106 c 0,-14.14658 -0.45344,-28.11205 -1.00765,-31.03438 -2.32721,-12.27132 -8.82778,-21.14336 -18.90587,-25.80289 -10.89827,-5.03874 -31.59666,-3.97016 -47.50889,2.4527 -3.25732,1.3148 -6.06068,2.39054 -6.22967,2.39054 -0.169,0 -1.25671,-1.86104 -2.41712,-4.13565 -2.48908,-4.87898 -2.66296,-4.70088 8.02263,-8.21717 16.42573,-5.40519 33.19531,-7.08111 45.24735,-4.52192 15.46807,3.28457 26.61738,14.10262 31.53104,30.59424 1.5745,5.28447 1.74864,15.02665 2.02927,113.5305 L 296.06807,486 Z M 260.06127,340 h -24.93872 l -0.57274,4.25 C 233.9366,348.80031 227,417.55928 227,419.0874 227,419.61655 239.18487,420 256,420 h 29 V 380 340 Z M 205.43644,172 c -1.82401,34.375 -3.34339,63.02037 -3.37641,63.65638 -0.0343,0.6597 -0.92693,0.92968 -2.07837,0.62857 -1.75832,-0.45981 -1.95245,-1.12408 -1.50695,-5.15638 0.28125,-2.54571 1.88385,-33.65357 3.56132,-69.12857 1.67747,-35.475 3.27599,-65.9625 3.55227,-67.75 0.30093,-1.94702 1.08554,-3.25 1.95701,-3.25 2.01546,0 1.84815,6.42642 -2.10887,81 z"
     id="path812"
     inkscape:connector-curvature="0" />
</svg>
