<?xml version="1.0" encoding="UTF-8" standalone="no"?>
<!-- Created with Inkscape (http://www.inkscape.org/) -->

<svg
   xmlns:dc="http://purl.org/dc/elements/1.1/"
   xmlns:cc="http://creativecommons.org/ns#"
   xmlns:rdf="http://www.w3.org/1999/02/22-rdf-syntax-ns#"
   xmlns:svg="http://www.w3.org/2000/svg"
   xmlns="http://www.w3.org/2000/svg"
   xmlns:xlink="http://www.w3.org/1999/xlink"
   xmlns:sodipodi="http://sodipodi.sourceforge.net/DTD/sodipodi-0.dtd"
   xmlns:inkscape="http://www.inkscape.org/namespaces/inkscape"
   version="1.1"
   id="svg2"
   width="500"
   height="500"
   viewBox="0 0 500 500"
   sodipodi:docname="w_rodel_violett.svg"
   inkscape:version="0.92.4 (5da689c313, 2019-01-14)">
  <metadata
     id="metadata8">
    <rdf:RDF>
      <cc:Work
         rdf:about="">
        <dc:format>image/svg+xml</dc:format>
        <dc:type
           rdf:resource="http://purl.org/dc/dcmitype/StillImage" />
        <dc:title />
      </cc:Work>
    </rdf:RDF>
  </metadata>
  <defs
     id="defs6" />
  <sodipodi:namedview
     pagecolor="#ffffff"
     bordercolor="#666666"
     borderopacity="1"
     objecttolerance="10"
     gridtolerance="10"
     guidetolerance="10"
     inkscape:pageopacity="0"
     inkscape:pageshadow="2"
     inkscape:window-width="2560"
     inkscape:window-height="1360"
     id="namedview4"
     showgrid="false"
     inkscape:showpageshadow="false"
     inkscape:zoom="1"
     inkscape:cx="-389"
     inkscape:cy="250"
     inkscape:window-x="-11"
     inkscape:window-y="-11"
     inkscape:window-maximized="1"
     inkscape:current-layer="svg2" />
  <image
     width="500"
     height="500"
     preserveAspectRatio="none"
     id="image10"
     x="-500"
     y="3.0615159e-14"
     style="fill:#ff00ff"
     transform="rotate(-90)" />
  <path
     style="fill:#990099;fill-opacity:1"
     d="M 331.01794,487 H 319 V 437 387 H 261 203 V 419.5 452 H 192 181 V 291 l 0,-161 h 11 11 v 40 40 h 58.08486 58.08485 l -0.43665,-46.75 C 318.24778,111.29382 318.32267,111.94727 311.08365,96.5 295.11593,62.42665 249.66423,38.89761 194.5,36.14798 l -13,-0.64798 -0.29486,-7.90503 -0.29485,-7.90503 16.29485,0.58602 c 52.74801,1.897 96.91757,19.44334 122.11499,48.51015 10.30433,11.88668 16.69058,23.73821 21.40001,39.71389 1.65937,5.62902 1.78564,17.5157 2.04223,192.25 L 343.03588,487 Z m -70.27456,-259.75813 -57.75662,-0.25812 0.25662,71.75812 L 203.5,370.5 260,370.75966 c 31.075,0.14281 57.0655,0.0433 57.75667,-0.22118 0.99598,-0.38108 1.20343,-15.26726 1,-71.75966 L 318.5,227.5 Z"
     id="path812"
     inkscape:connector-curvature="0" />
</svg>
